<svg xmlns="http://www.w3.org/2000/svg" viewBox="0 0 1000 700" font-family="Arial, sans-serif" font-size="11">
<rect width="100%" height="100%" fill="#fafaf7"/>
<g transform="translate(740,570)">
<rect width="250" height="120" fill="#fff" stroke="#333" stroke-width="1"/>
<text x="10" y="20" font-size="13" font-weight="bold">HCIL-CLR-PID-001 Rev A</text>
<text x="10" y="40" font-size="10">Plant: Hetauda</text>
<text x="10" y="55" font-size="10">Client: Himalayan Carbon Nepal / Hetau</text>
<text x="10" y="70" font-size="10">Date: 2026-07-22</text>
<text x="10" y="85" font-size="10">Scale: NTS | Sheet: 1 of 1</text>
<text x="10" y="100" font-size="10">Units: SI (mm, C, kPa, kg/s, Nm3/h)</text>
<text x="10" y="115" font-size="9" fill="#666">Designed: Mavis / nepal-decarb v1.0</text>
</g>
<text x="20" y="30" font-size="18" font-weight="bold">Hetauda Cooler P&amp;ID</text>
<text x="20" y="48" font-size="11" fill="#555">Hetauda Cement Cooler -- Piping & Instrumentation Diagram</text>
<text x="20" y="62" font-size="10" fill="#666">Per ISA-5.1 / ISA-5.3 | ISA-5.1 (instrumentation symbols), ISA-5.3 (P&ID)</text>
<g id="cooler">
<rect x="200" y="250" width="500" height="100" fill="#fff" stroke="#000" stroke-width="2"/>
<line x1="283.3333333333333" y1="250" x2="283.3333333333333" y2="350" stroke="#000" stroke-width="1"/>
<text x="243.66666666666666" y="246" font-size="9">C1</text>
<line x1="366.66666666666663" y1="250" x2="366.66666666666663" y2="350" stroke="#000" stroke-width="1"/>
<text x="326.99999999999994" y="246" font-size="9">C2</text>
<line x1="450.0" y1="250" x2="450.0" y2="350" stroke="#000" stroke-width="1"/>
<text x="410.3333333333333" y="246" font-size="9">C3</text>
<line x1="533.3333333333333" y1="250" x2="533.3333333333333" y2="350" stroke="#000" stroke-width="1"/>
<text x="493.6666666666666" y="246" font-size="9">C4</text>
<line x1="616.6666666666667" y1="250" x2="616.6666666666667" y2="350" stroke="#000" stroke-width="1"/>
<text x="577.0000000000001" y="246" font-size="9">C5</text>
<text x="205" y="246" font-size="9">C1</text>
<text x="688" y="246" font-size="9">C6</text>
<line x1="200" y1="310.0" x2="700" y2="310.0" stroke="#444" stroke-dasharray="4 2" stroke-width="1"/>
<text x="205" y="307.0" font-size="8" fill="#666">grate</text>
<text x="420.0" y="365" font-size="11" font-weight="bold">COOLER</text>
</g>
<defs><marker id="arr_in1" markerWidth="8" markerHeight="8" refX="7" refY="4" orient="auto"><path d="M0,0 L0,8 L8,4 z" fill="#c00"/></marker></defs>
<line x1="100" y1="200" x2="220" y2="250" stroke="#c00" stroke-width="2" marker-end="url(#arr_in1)"/>
<rect x="90.0" y="213.0" width="140" height="24" fill="#fff" stroke="#c00" stroke-width="1" rx="3"/>
<text x="160.0" y="224.0" text-anchor="middle" font-size="10" font-weight="bold">Clinker in</text>
<text x="160.0" y="235.0" text-anchor="middle" font-size="9" fill="#444">T=1400C  m=36.1 kg/s</text>
<defs><marker id="arr_sec" markerWidth="8" markerHeight="8" refX="7" refY="4" orient="auto"><path d="M0,0 L0,8 L8,4 z" fill="#c00"/></marker></defs>
<line x1="230" y1="200" x2="230" y2="230" stroke="#c00" stroke-width="2" marker-end="url(#arr_sec)"/>
<rect x="160.0" y="203.0" width="140" height="24" fill="#fff" stroke="#c00" stroke-width="1" rx="3"/>
<text x="230.0" y="214.0" text-anchor="middle" font-size="10" font-weight="bold">Sec air out</text>
<text x="230.0" y="225.0" text-anchor="middle" font-size="9" fill="#444">T=559C  m=26.4 kg/s</text>
<defs><marker id="arr_tert" markerWidth="8" markerHeight="8" refX="7" refY="4" orient="auto"><path d="M0,0 L0,8 L8,4 z" fill="#e80"/></marker></defs>
<line x1="450.0" y1="200" x2="450.0" y2="230" stroke="#e80" stroke-width="2" marker-end="url(#arr_tert)"/>
<rect x="380.0" y="203.0" width="140" height="24" fill="#fff" stroke="#e80" stroke-width="1" rx="3"/>
<text x="450.0" y="214.0" text-anchor="middle" font-size="10" font-weight="bold">Tert air out</text>
<text x="450.0" y="225.0" text-anchor="middle" font-size="9" fill="#444">T=232C  m=35.1 kg/s</text>
<defs><marker id="arr_exh" markerWidth="8" markerHeight="8" refX="7" refY="4" orient="auto"><path d="M0,0 L0,8 L8,4 z" fill="#e80"/></marker></defs>
<line x1="670" y1="200" x2="670" y2="230" stroke="#e80" stroke-width="2" marker-end="url(#arr_exh)"/>
<rect x="600.0" y="203.0" width="140" height="24" fill="#fff" stroke="#e80" stroke-width="1" rx="3"/>
<text x="670.0" y="214.0" text-anchor="middle" font-size="10" font-weight="bold">Exhaust</text>
<text x="670.0" y="225.0" text-anchor="middle" font-size="9" fill="#444">T=135C  m=17.4 kg/s</text>
<defs><marker id="arr_out" markerWidth="8" markerHeight="8" refX="7" refY="4" orient="auto"><path d="M0,0 L0,8 L8,4 z" fill="#c00"/></marker></defs>
<line x1="700" y1="300.0" x2="780" y2="300.0" stroke="#c00" stroke-width="2" marker-end="url(#arr_out)"/>
<rect x="670.0" y="288.0" width="140" height="24" fill="#fff" stroke="#c00" stroke-width="1" rx="3"/>
<text x="740.0" y="299.0" text-anchor="middle" font-size="10" font-weight="bold">Clinker out</text>
<text x="740.0" y="310.0" text-anchor="middle" font-size="9" fill="#444">T=536C  m=36.1 kg/s</text>
<defs><marker id="arr_uga" markerWidth="8" markerHeight="8" refX="7" refY="4" orient="auto"><path d="M0,0 L0,8 L8,4 z" fill="#06c"/></marker></defs>
<line x1="450.0" y1="380" x2="450.0" y2="355" stroke="#06c" stroke-width="2" marker-end="url(#arr_uga)"/>
<rect x="380.0" y="355.5" width="140" height="24" fill="#fff" stroke="#06c" stroke-width="1" rx="3"/>
<text x="450.0" y="366.5" text-anchor="middle" font-size="10" font-weight="bold">Under-grate air</text>
<text x="450.0" y="377.5" text-anchor="middle" font-size="9" fill="#444">T=35C  m=131.2 kg/s</text>
<circle cx="230" cy="160" r="14" fill="#fff" stroke="#000" stroke-width="1.5"/>
<text x="230" y="164" text-anchor="middle" font-size="11" font-weight="bold">T</text>
<text x="230" y="188" text-anchor="middle" font-size="9" font-weight="bold">TI-1101</text>
<circle cx="450.0" cy="160" r="14" fill="#fff" stroke="#000" stroke-width="1.5"/>
<text x="450.0" y="164" text-anchor="middle" font-size="11" font-weight="bold">T</text>
<text x="450.0" y="188" text-anchor="middle" font-size="9" font-weight="bold">TI-1102</text>
<circle cx="670" cy="160" r="14" fill="#fff" stroke="#000" stroke-width="1.5"/>
<text x="670" y="164" text-anchor="middle" font-size="11" font-weight="bold">T</text>
<text x="670" y="188" text-anchor="middle" font-size="9" font-weight="bold">TI-1103</text>
<circle cx="750" cy="380" r="14" fill="#fff" stroke="#000" stroke-width="1.5"/>
<text x="750" y="384" text-anchor="middle" font-size="11" font-weight="bold">T</text>
<text x="750" y="408" text-anchor="middle" font-size="9" font-weight="bold">TI-1104</text>
<circle cx="80" cy="400" r="14" fill="#fff" stroke="#000" stroke-width="1.5"/>
<text x="80" y="404" text-anchor="middle" font-size="11" font-weight="bold">T</text>
<text x="80" y="428" text-anchor="middle" font-size="9" font-weight="bold">TI-1105</text>
<circle cx="450.0" cy="410" r="14" fill="#fff" stroke="#000" stroke-width="1.5"/>
<text x="450.0" y="414" text-anchor="middle" font-size="11" font-weight="bold">P</text>
<text x="450.0" y="438" text-anchor="middle" font-size="9" font-weight="bold">PI-1101</text>
<rect x="218" y="108" width="24" height="24" fill="#fff" stroke="#000" stroke-width="1.5"/>
<text x="230" y="124" text-anchor="middle" font-size="11" font-weight="bold">F</text>
<text x="230" y="148" text-anchor="middle" font-size="9" font-weight="bold">FT-1101</text>
<polygon points="670,396 684,410 670,424 656,410" fill="#fff" stroke="#000" stroke-width="1.5"/>
<text x="670" y="414" text-anchor="middle" font-size="11" font-weight="bold">S</text>
<text x="670" y="438" text-anchor="middle" font-size="9" font-weight="bold">SC-1101</text>
<g transform="translate(20, 470)">
<rect width="170" height="200" fill="#fff" stroke="#666"/>
<text x="10" y="18" font-size="11" font-weight="bold">Legend (ISA-5.1)</text>
<circle cx="20" cy="40" r="10" fill="#fff" stroke="#000" stroke-width="1.5"/>
<text x="20" y="44" text-anchor="middle" font-size="10" font-weight="bold">T</text>
<text x="40" y="44" font-size="10">Temperature indicator</text>
<circle cx="20" cy="65" r="10" fill="#fff" stroke="#000" stroke-width="1.5"/>
<text x="20" y="69" text-anchor="middle" font-size="10" font-weight="bold">P</text>
<text x="40" y="69" font-size="10">Pressure (dP) indicator</text>
<rect x="10" y="80" width="20" height="20" fill="#fff" stroke="#000" stroke-width="1.5"/>
<text x="20" y="94" text-anchor="middle" font-size="10" font-weight="bold">F</text>
<text x="40" y="94" font-size="10">Flow transmitter</text>
<polygon points="20,110 30,120 20,130 10,120" fill="#fff" stroke="#000" stroke-width="1.5"/>
<text x="20" y="124" text-anchor="middle" font-size="10" font-weight="bold">S</text>
<text x="40" y="124" font-size="10">Speed controller</text>
<line x1="10" y1="150" x2="40" y2="150" stroke="#c00" stroke-width="2"/>
<text x="50" y="154" font-size="10">Hot stream (&gt; 500 C)</text>
<line x1="10" y1="170" x2="40" y2="170" stroke="#06c" stroke-width="2"/>
<text x="50" y="174" font-size="10">Cold stream (&lt; 100 C)</text>
</g>
<g transform="translate(740, 70)">
<rect width="250" height="180" fill="#fff" stroke="#666"/>
<text x="10" y="18" font-size="11" font-weight="bold">Stream summary</text>
<text x="10" y="35" font-size="9"><tspan font-weight="bold">Clinker in    </tspan> T= 1400 C  m= 36.1 kg/s</text>
<text x="10" y="53" font-size="9"><tspan font-weight="bold">Sec air out   </tspan> T=  559 C  m= 26.4 kg/s</text>
<text x="10" y="71" font-size="9"><tspan font-weight="bold">Tert air out  </tspan> T=  232 C  m= 35.1 kg/s</text>
<text x="10" y="89" font-size="9"><tspan font-weight="bold">Exhaust out   </tspan> T=  135 C  m= 17.4 kg/s</text>
<text x="10" y="107" font-size="9"><tspan font-weight="bold">Clinker out   </tspan> T=  536 C  m= 36.1 kg/s</text>
<text x="10" y="125" font-size="9"><tspan font-weight="bold">Under-grate air in</tspan> T=   35 C  m=131.2 kg/s</text>
</g>
<g transform="translate(20, 670)">
<text x="0" y="0" font-size="9" fill="#666">Instruments: 8 ISA-5.1 loops. Drawing HCIL-CLR-PID-001 Rev A. Source: cooler v0.5.0 calibrated model (Hetauda 130 t/h, 1400 m altitude). First-law energy balance: 1.8e-16. License: MIT.</text>
</g>
</svg>