<svg xmlns="http://www.w3.org/2000/svg" viewBox="0 0 1000 700" width="3000" height="2100" font-family="Arial, sans-serif" font-size="11">
  <rect width="100%" height="100%" fill="#fafaf7"/>
  <defs>
    <marker id="arrow" viewBox="0 0 10 10" refX="9" refY="5" markerWidth="8" markerHeight="8" orient="auto-start-reverse">
      <path d="M 0 0 L 10 5 L 0 10 z" class="arrow"/>
    </marker>
  </defs>
  <style>
    .title { font-size: 18px; font-weight: bold; }
    .stream { stroke: #1c1c1c; stroke-width: 2; fill: none; }
    .arrow { fill: #1c1c1c; }
    .label { font-size: 12px; fill: #1c1c1c; }
    .label-small { font-size: 9px; fill: #555; }
    .instrument { fill: white; stroke: #1c1c1c; stroke-width: 1.5; }
    .instrument-text { font-size: 9px; text-anchor: middle; dominant-baseline: middle; }
    .housing { fill: #e8e0d0; stroke: #1c1c1c; stroke-width: 1.5; }
    .grid { stroke: #ddd; stroke-width: 0.3; }
  </style>
  <rect x="20" y="20" width="960" height="50" fill="white" stroke="#1c1c1c" stroke-width="1"/>
  <text x="40" y="50" class="title">PlantA Industries Ltd. &mdash; Clinker Cooler P&amp;ID</text>
  <text x="800" y="50" class="label-small">Drawing: NIDC-CLR-PID-001 Rev A</text>
  <text x="40" y="65" class="label-small">v0.5.0 calibrated (Day 5 ship, commit 2aa918c)</text>
  <text x="800" y="65" class="label-small">Date: 2026-07-22</text>
  <g class="grid">
    <line x1="0" y1="80" x2="0" y2="680"/>
    <line x1="50" y1="80" x2="50" y2="680"/>
    <line x1="100" y1="80" x2="100" y2="680"/>
    <line x1="150" y1="80" x2="150" y2="680"/>
    <line x1="200" y1="80" x2="200" y2="680"/>
    <line x1="250" y1="80" x2="250" y2="680"/>
    <line x1="300" y1="80" x2="300" y2="680"/>
    <line x1="350" y1="80" x2="350" y2="680"/>
    <line x1="400" y1="80" x2="400" y2="680"/>
    <line x1="450" y1="80" x2="450" y2="680"/>
    <line x1="500" y1="80" x2="500" y2="680"/>
    <line x1="550" y1="80" x2="550" y2="680"/>
    <line x1="600" y1="80" x2="600" y2="680"/>
    <line x1="650" y1="80" x2="650" y2="680"/>
    <line x1="700" y1="80" x2="700" y2="680"/>
    <line x1="750" y1="80" x2="750" y2="680"/>
    <line x1="800" y1="80" x2="800" y2="680"/>
    <line x1="850" y1="80" x2="850" y2="680"/>
    <line x1="900" y1="80" x2="900" y2="680"/>
    <line x1="950" y1="80" x2="950" y2="680"/>
    <line x1="1000" y1="80" x2="1000" y2="680"/>
    <line x1="0" y1="80" x2="1000" y2="80"/>
    <line x1="0" y1="130" x2="1000" y2="130"/>
    <line x1="0" y1="180" x2="1000" y2="180"/>
    <line x1="0" y1="230" x2="1000" y2="230"/>
    <line x1="0" y1="280" x2="1000" y2="280"/>
    <line x1="0" y1="330" x2="1000" y2="330"/>
    <line x1="0" y1="380" x2="1000" y2="380"/>
    <line x1="0" y1="430" x2="1000" y2="430"/>
    <line x1="0" y1="480" x2="1000" y2="480"/>
    <line x1="0" y1="530" x2="1000" y2="530"/>
    <line x1="0" y1="580" x2="1000" y2="580"/>
    <line x1="0" y1="630" x2="1000" y2="630"/>
    <line x1="0" y1="680" x2="1000" y2="680"/>
  </g>
  <rect x="350.0" y="300.0" width="300" height="100" class="housing"/>
  <text x="500.0" y="320.0" class="label" text-anchor="middle">CLINKER COOLER</text>
  <text x="500.0" y="338.0" class="label-small" text-anchor="middle">5 compartments, 32.8 m grate, 0.78 m bed</text>
  <text x="500.0" y="355.0" class="label-small" text-anchor="middle">130 t/h clinker, 1400 m altitude</text>
  <text x="500.0" y="372.0" class="label-small" text-anchor="middle">PlantA, Nepal</text>
  <line x1="200.0" y1="250.0" x2="350.0" y2="250.0" class="stream" marker-end="url(#arrow)"/>
  <text x="275.0" y="240.0" class="label" text-anchor="middle">Clinker in (kiln discharge)</text>
  <text x="275.0" y="255.0" class="label-small" text-anchor="middle">1400 °C, 36 kg/s</text>
  <line x1="650.0" y1="250.0" x2="800.0" y2="250.0" class="stream" marker-end="url(#arrow)"/>
  <text x="725.0" y="240.0" class="label" text-anchor="middle">Sec air out (to kiln burner)</text>
  <text x="725.0" y="255.0" class="label-small" text-anchor="middle">715 °C, 26 kg/s</text>
  <line x1="650.0" y1="325.0" x2="800.0" y2="325.0" class="stream" marker-end="url(#arrow)"/>
  <text x="725.0" y="315.0" class="label" text-anchor="middle">Tert air out (to calciner)</text>
  <text x="725.0" y="338.0" class="label-small" text-anchor="middle">190 °C, 80 kg/s</text>
  <line x1="650.0" y1="375.0" x2="800.0" y2="375.0" class="stream" marker-end="url(#arrow)"/>
  <text x="725.0" y="365.0" class="label" text-anchor="middle">Exhaust out (to dust coll.)</text>
  <text x="725.0" y="388.0" class="label-small" text-anchor="middle">149 °C, 53 kg/s</text>
  <line x1="500.0" y1="400.0" x2="500.0" y2="550.0" class="stream" marker-end="url(#arrow)"/>
  <text x="510.0" y="475.0" class="label">Clinker out (to cement mill)</text>
  <text x="510.0" y="490.0" class="label-small">351 °C, 36 kg/s (target 150 °C; v0.5.0 model)</text>
  <line x1="500.0" y1="150.0" x2="500.0" y2="300.0" class="stream" marker-end="url(#arrow)"/>
  <text x="510.0" y="170.0" class="label">Under-grate air in (from PA fan)</text>
  <text x="510.0" y="185.0" class="label-small">120 °C (recuperator preheat), 159 kg/s</text>
  <circle cx="650.0" cy="250.0" r="14" class="instrument"/>
  <line x1="650.0" y1="264.0" x2="650.0" y2="280.0" stroke="#1c1c1c" stroke-width="1"/>
  <text x="668.0" y="284.0" class="label-small">TI-1101</text>
  <text x="650.0" y="253.0" class="instrument-text">TI</text>
  <text x="668.0" y="254.0" class="label-small">Sec air T</text>
  <circle cx="650.0" cy="325.0" r="14" class="instrument"/>
  <line x1="650.0" y1="339.0" x2="650.0" y2="355.0" stroke="#1c1c1c" stroke-width="1"/>
  <text x="668.0" y="359.0" class="label-small">TI-1102</text>
  <text x="650.0" y="328.0" class="instrument-text">TI</text>
  <text x="668.0" y="329.0" class="label-small">Tert air T</text>
  <circle cx="650.0" cy="375.0" r="14" class="instrument"/>
  <line x1="650.0" y1="389.0" x2="650.0" y2="405.0" stroke="#1c1c1c" stroke-width="1"/>
  <text x="668.0" y="409.0" class="label-small">TI-1103</text>
  <text x="650.0" y="378.0" class="instrument-text">TI</text>
  <text x="668.0" y="379.0" class="label-small">Exhaust T</text>
  <circle cx="470.0" cy="550.0" r="14" class="instrument"/>
  <line x1="470.0" y1="564.0" x2="470.0" y2="580.0" stroke="#1c1c1c" stroke-width="1"/>
  <text x="488.0" y="584.0" class="label-small">TI-1104</text>
  <text x="470.0" y="553.0" class="instrument-text">TI</text>
  <text x="488.0" y="554.0" class="label-small">Clinker out T</text>
  <circle cx="750.0" cy="170.0" r="14" class="instrument"/>
  <line x1="750.0" y1="184.0" x2="750.0" y2="200.0" stroke="#1c1c1c" stroke-width="1"/>
  <text x="768.0" y="204.0" class="label-small">TI-1105</text>
  <text x="750.0" y="173.0" class="instrument-text">TI</text>
  <text x="768.0" y="174.0" class="label-small">Ambient T</text>
  <circle cx="350.0" cy="300.0" r="14" class="instrument"/>
  <line x1="350.0" y1="314.0" x2="350.0" y2="330.0" stroke="#1c1c1c" stroke-width="1"/>
  <text x="368.0" y="334.0" class="label-small">PI-1101</text>
  <text x="350.0" y="303.0" class="instrument-text">PI</text>
  <text x="368.0" y="304.0" class="label-small">Bed dP</text>
  <circle cx="650.0" cy="200.0" r="14" class="instrument"/>
  <line x1="650.0" y1="214.0" x2="650.0" y2="230.0" stroke="#1c1c1c" stroke-width="1"/>
  <text x="668.0" y="234.0" class="label-small">FT-1101</text>
  <text x="650.0" y="203.0" class="instrument-text">FT</text>
  <text x="668.0" y="204.0" class="label-small">Sec air flow</text>
  <circle cx="350.0" cy="400.0" r="14" class="instrument"/>
  <line x1="350.0" y1="414.0" x2="350.0" y2="430.0" stroke="#1c1c1c" stroke-width="1"/>
  <text x="368.0" y="434.0" class="label-small">SC-1101</text>
  <text x="350.0" y="403.0" class="instrument-text">SC</text>
  <text x="368.0" y="404.0" class="label-small">Grate speed</text>
  <rect x="700" y="500" width="280" height="180" fill="white" stroke="#1c1c1c" stroke-width="1"/>
  <text x="840" y="520" class="label" text-anchor="middle">LEGEND</text>
  <text x="710" y="540" class="label-small">TI = Temperature Indicator</text>
  <text x="710" y="555" class="label-small">PI = Pressure Indicator</text>
  <text x="710" y="570" class="label-small">FT = Flow Transmitter</text>
  <text x="710" y="585" class="label-small">SC = Speed Controller</text>
  <text x="710" y="605" class="label-small">Process stream (labelled arrow)</text>
  <text x="710" y="620" class="label-small">Process equipment (housing)</text>
  <text x="710" y="635" class="label-small">Instrument (ISA-5.1 circle)</text>
  <text x="710" y="660" class="label-small" font-style="italic">NIDC-CLR-PID-001 Rev A</text>
  <text x="710" y="673" class="label-small" font-style="italic">Cite: ISA-5.1-2009, ISA-5.3-1983</text>
  <text x="500.0" y="695" class="label-small" text-anchor="middle">Source: nepal_decarb_pro v0.9.0 (commit in Day 9) | v0.5.0 calibration posterior (commit 2aa918c) | open source (MIT)</text>
</svg>